<svg width="21" height="20" viewBox="0 0 21 20" fill="none" xmlns="http://www.w3.org/2000/svg">
<g id="akar-icons:twitter-fill" clip-path="url(#clip0_962_212)">
<path id="Vector" d="M20.6891 4.11572C19.9933 4.42403 19.2459 4.63234 18.4601 4.7265C19.2709 4.24137 19.8775 3.47782 20.1667 2.57834C19.4049 3.03079 18.5712 3.34927 17.7019 3.51993C17.1172 2.8957 16.3428 2.48195 15.499 2.34292C14.6551 2.20388 13.7889 2.34735 13.0349 2.75103C12.2809 3.15472 11.6813 3.79604 11.3291 4.57544C10.977 5.35483 10.892 6.22868 11.0874 7.06132C9.54389 6.98383 8.03396 6.58265 6.65556 5.88384C5.27717 5.18502 4.06111 4.20418 3.08632 3.00497C2.75301 3.57993 2.56136 4.24654 2.56136 4.95649C2.56099 5.5956 2.71837 6.22492 3.01956 6.78862C3.32074 7.35232 3.7564 7.83296 4.28789 8.1879C3.6715 8.16829 3.06871 8.00174 2.5297 7.70211V7.7521C2.52963 8.64849 2.8397 9.51728 3.40728 10.2111C3.97486 10.9049 4.765 11.3809 5.64362 11.5585C5.07182 11.7132 4.47233 11.736 3.89042 11.6251C4.13832 12.3964 4.6212 13.0709 5.27146 13.5541C5.92172 14.0373 6.7068 14.3051 7.51681 14.3199C6.14178 15.3994 4.44362 15.9849 2.69552 15.9823C2.38586 15.9824 2.07646 15.9643 1.76892 15.9281C3.54335 17.069 5.60891 17.6745 7.71846 17.6722C14.8596 17.6722 18.7634 11.7576 18.7634 6.62802C18.7634 6.46137 18.7593 6.29305 18.7518 6.1264C19.5111 5.57725 20.1666 4.89724 20.6875 4.11822L20.6891 4.11572Z" fill="#4A3F48"/>
</g>
<defs>
<clipPath id="clip0_962_212">
<rect width="19.9985" height="19.9985" fill="white" transform="translate(0.988091 0.00170898)"/>
</clipPath>
</defs>
</svg>
