<svg width="21" height="20" viewBox="0 0 21 20" fill="none" xmlns="http://www.w3.org/2000/svg">
<g id="bi:instagram" clip-path="url(#clip0_962_276)">
<path id="Vector" d="M10.985 -0.000244141C8.2715 -0.000244141 7.93027 0.0122549 6.8641 0.0597512C5.79794 0.109747 5.07174 0.277234 4.43554 0.524715C3.76821 0.77572 3.16376 1.16945 2.66443 1.67838C2.15581 2.17796 1.76213 2.78234 1.51077 3.44949C1.26329 4.08444 1.09455 4.81188 1.0458 5.8743C0.998308 6.94297 0.985809 7.28294 0.985809 10.0002C0.985809 12.715 0.998308 13.055 1.0458 14.1212C1.0958 15.1861 1.26329 15.9123 1.51077 16.5485C1.767 17.2059 2.10822 17.7634 2.66443 18.3196C3.21939 18.8758 3.77684 19.2183 4.43429 19.4732C5.07174 19.7207 5.79669 19.8895 6.86161 19.9382C7.92902 19.9857 8.269 19.9982 10.985 19.9982C13.7011 19.9982 14.0398 19.9857 15.1072 19.9382C16.1709 19.8882 16.8996 19.7207 17.5358 19.4732C18.2027 19.2221 18.8067 18.8284 19.3056 18.3196C19.8618 17.7634 20.2031 17.2059 20.4593 16.5485C20.7055 15.9123 20.8743 15.1861 20.9243 14.1212C20.9718 13.055 20.9843 12.715 20.9843 9.99898C20.9843 7.28294 20.9718 6.94297 20.9243 5.87555C20.8743 4.81188 20.7055 4.08444 20.4593 3.44949C20.208 2.78232 19.8143 2.17793 19.3056 1.67838C18.8065 1.16926 18.202 0.775503 17.5345 0.524715C16.8971 0.277234 16.1696 0.108497 15.106 0.0597512C14.0385 0.0122549 13.6998 -0.000244141 10.9825 -0.000244141H10.9863H10.985ZM10.0889 1.80212H10.9863C13.6561 1.80212 13.9723 1.81087 15.026 1.85961C16.0009 1.90336 16.5309 2.0671 16.8833 2.20334C17.3495 2.38457 17.6833 2.60205 18.0332 2.95203C18.3832 3.302 18.5994 3.63447 18.7807 4.10194C18.9182 4.45316 19.0807 4.98312 19.1244 5.95805C19.1732 7.01171 19.1832 7.32794 19.1832 9.99648C19.1832 12.665 19.1732 12.9825 19.1244 14.0362C19.0807 15.0111 18.9169 15.5398 18.7807 15.8923C18.6204 16.3264 18.3645 16.719 18.032 17.0409C17.682 17.3909 17.3495 17.6071 16.8821 17.7884C16.5321 17.9259 16.0021 18.0884 15.026 18.1334C13.9723 18.1809 13.6561 18.1921 10.9863 18.1921C8.31649 18.1921 7.99902 18.1809 6.94535 18.1334C5.97042 18.0884 5.44171 17.9259 5.08924 17.7884C4.6549 17.6283 4.26196 17.3729 3.93933 17.0409C3.60654 16.7185 3.35028 16.3256 3.18939 15.891C3.05315 15.5398 2.88941 15.0098 2.84567 14.0349C2.79817 12.9813 2.78817 12.665 2.78817 9.99398C2.78817 7.32419 2.79817 7.00921 2.84567 5.95554C2.89066 4.98062 3.05315 4.45066 3.19064 4.09819C3.37187 3.63197 3.58936 3.29825 3.93933 2.94828C4.2893 2.5983 4.62178 2.38207 5.08924 2.20084C5.44171 2.06335 5.97042 1.90086 6.94535 1.85586C7.86778 1.81337 8.22525 1.80087 10.0889 1.79962V1.80212ZM16.3234 3.46199C16.1658 3.46199 16.0098 3.49302 15.8642 3.55333C15.7186 3.61363 15.5863 3.70201 15.4749 3.81343C15.3635 3.92485 15.2751 4.05713 15.2148 4.20271C15.1545 4.34829 15.1235 4.50432 15.1235 4.6619C15.1235 4.81947 15.1545 4.9755 15.2148 5.12108C15.2751 5.26666 15.3635 5.39894 15.4749 5.51036C15.5863 5.62178 15.7186 5.71016 15.8642 5.77046C16.0098 5.83077 16.1658 5.8618 16.3234 5.8618C16.6416 5.8618 16.9468 5.73538 17.1718 5.51036C17.3969 5.28533 17.5233 4.98013 17.5233 4.6619C17.5233 4.34366 17.3969 4.03846 17.1718 3.81343C16.9468 3.58841 16.6416 3.46199 16.3234 3.46199ZM10.9863 4.86438C10.3052 4.85375 9.62876 4.97873 8.99641 5.23203C8.36407 5.48533 7.78843 5.86189 7.30301 6.33979C6.81759 6.8177 6.43209 7.38739 6.16896 8.01571C5.90583 8.64403 5.77031 9.31841 5.77031 9.99961C5.77031 10.6808 5.90583 11.3552 6.16896 11.9835C6.43209 12.6118 6.81759 13.1815 7.30301 13.6594C7.78843 14.1373 8.36407 14.5139 8.99641 14.7672C9.62876 15.0205 10.3052 15.1455 10.9863 15.1348C12.3344 15.1138 13.6201 14.5635 14.566 13.6028C15.5119 12.642 16.042 11.3478 16.042 9.99961C16.042 8.65137 15.5119 7.3572 14.566 6.39645C13.6201 5.43569 12.3344 4.88541 10.9863 4.86438ZM10.9863 6.66549C11.8704 6.66549 12.7183 7.0167 13.3434 7.64185C13.9686 8.267 14.3198 9.11489 14.3198 9.99898C14.3198 10.8831 13.9686 11.731 13.3434 12.3561C12.7183 12.9813 11.8704 13.3325 10.9863 13.3325C10.1022 13.3325 9.2543 12.9813 8.62915 12.3561C8.004 11.731 7.65279 10.8831 7.65279 9.99898C7.65279 9.11489 8.004 8.267 8.62915 7.64185C9.2543 7.0167 10.1022 6.66549 10.9863 6.66549Z" fill="#4A3F48"/>
</g>
<defs>
<clipPath id="clip0_962_276">
<rect width="19.9985" height="19.9985" fill="white" transform="translate(0.986084)"/>
</clipPath>
</defs>
</svg>
