<svg width="104" height="213" viewBox="0 0 104 213" fill="none" xmlns="http://www.w3.org/2000/svg">
<g id="Character">
<path id="Vector" d="M79.1888 32.2363L84.5354 38.9177L90.2856 46.0957L90.433 52.2727L76.7289 40.1981L79.1888 32.2363Z" fill="#E3887B"/>
<path id="Vector_2" opacity="0.2" d="M80.4457 37.8464L81.2372 42.518L85.9631 48.982L90.332 52.2723L89.944 45.7539L88.066 43.3638L80.4457 37.8464Z" fill="black"/>
<path id="Vector_3" d="M68.9921 20.4634C68.9921 20.4634 67.0521 10.7634 57.065 12.7034C47.0779 14.6434 51.7261 28.2777 53.767 32.5613C55.8079 36.8448 56.095 40.3213 53.6661 42.2846C53.6661 42.2846 56.9641 43.2313 58.7101 40.9654C58.7101 40.9654 58.617 43.0606 57.453 43.9374C57.453 43.9374 67.4944 40.3446 64.9492 28.6114C62.4039 16.8783 68.9921 20.4634 68.9921 20.4634Z" fill="#263238"/>
<path id="Vector_4" d="M79.7709 60.9876L60.2389 62.0507C60.2389 62.0507 59.2612 51.9627 57.6471 46.5772C57.4919 46.0651 57.3212 45.5297 57.1427 44.9709C56.7159 43.644 54.1629 36.0547 55.9709 33.6879C57.8255 33.1346 59.7269 32.7528 61.6513 32.5472C64.687 32.0903 67.7473 31.8156 70.8158 31.7246C74.7812 31.7246 79.3518 32.0816 79.3518 32.0816C79.3518 32.0816 80.0037 32.2135 80.4149 35.8141C80.6012 37.5369 81.9669 40.6719 81.8583 45.1261C81.8583 45.6461 80.9814 46.4841 80.5003 46.8954C80.3606 50.8841 80.1278 55.672 79.7709 60.9876Z" fill="#263238"/>
<path id="Vector_5" opacity="0.1" d="M79.7709 60.9876L60.2389 62.0507C60.2389 62.0507 59.2612 51.9627 57.6471 46.5772C57.4919 46.0651 57.3212 45.5297 57.1427 44.9709C56.7159 43.644 54.1629 36.0547 55.9709 33.6879C57.8255 33.1346 59.7269 32.7528 61.6513 32.5472C64.687 32.0903 67.7473 31.8156 70.8158 31.7246C74.7812 31.7246 79.3518 32.0816 79.3518 32.0816C79.3518 32.0816 80.0037 32.2135 80.4149 35.8141C80.6012 37.5369 81.9669 40.6719 81.8583 45.1261C81.8583 45.6461 80.9814 46.4841 80.5003 46.8954C80.3606 50.8841 80.1278 55.672 79.7709 60.9876Z" fill="white"/>
<path id="Vector_6" d="M71.5762 36.4506C65.3682 35.6746 63.5524 33.0206 63.5524 33.0206C66.0744 30.6461 65.6165 27.1385 64.9724 24.9502C64.7723 24.2566 64.5127 23.5816 64.1964 22.9326L71.6228 24.3217C71.4516 25.348 71.3557 26.3854 71.3356 27.4257C71.308 28.2074 71.3784 28.9895 71.5452 29.7537C72.0496 31.973 73.3145 32.0041 73.3145 32.0041C74.6336 34.4329 71.5762 36.4506 71.5762 36.4506Z" fill="#E3887B"/>
<path id="Vector_7" opacity="0.2" d="M71.6615 29.9388C71.7134 30.3672 71.872 30.7758 72.1228 31.127C72.3736 31.4781 72.7087 31.7607 73.0971 31.9486C70.1483 31.5606 67.153 29.9233 65.7484 27.8746C65.3992 26.6641 65.1276 25.5466 65.1276 25.5466L71.9487 26.8193C71.7768 27.8507 71.6808 28.8933 71.6615 29.9388Z" fill="black"/>
<path id="Vector_8" d="M77.0237 5.4245C77.0237 5.4245 82.06 5.6185 83.418 9.8865C84.776 14.1545 83.7051 18.9192 76.1856 24.0097C68.6662 29.1003 62.3728 24.1028 59.4628 20.6264C56.5528 17.1499 58.004 5.40122 66.346 4.00442C74.688 2.60762 77.0237 5.4245 77.0237 5.4245Z" fill="#263238"/>
<path id="Vector_9" d="M72.2126 6.80592C78.6069 7.72936 80.1744 11.4619 79.6855 18.1045C79.0802 26.431 76.4108 32.0182 68.6663 29.1004C58.1282 25.1195 61.5892 5.26944 72.2126 6.80592Z" fill="#E4897B"/>
<path id="Vector_10" d="M75.6037 17.1506C75.9774 18.1822 76.4751 19.1646 77.0858 20.0762C76.8599 20.313 76.5731 20.4832 76.257 20.568C75.9408 20.6529 75.6074 20.6492 75.2932 20.5573L75.6037 17.1506Z" fill="#DE5753"/>
<path id="Vector_11" d="M71.7626 16.0637C71.7005 16.5914 71.3668 16.9871 70.9866 16.9406C70.6063 16.894 70.3968 16.4362 70.4589 15.9085C70.521 15.3808 70.8624 14.9928 71.2349 15.0316C71.6074 15.0704 71.8324 15.536 71.7626 16.0637Z" fill="#263238"/>
<path id="Vector_12" d="M71.0949 15.0318L72.2977 14.7214C72.2977 14.7214 71.6071 15.6294 71.0949 15.0318Z" fill="#263238"/>
<path id="Vector_13" d="M78.3041 16.7471C78.2343 17.2748 77.9006 17.6628 77.5281 17.624C77.1557 17.5852 76.9384 17.1196 77.0082 16.5919C77.0781 16.0642 77.404 15.6685 77.7842 15.715C78.1645 15.7616 78.3973 16.2194 78.3041 16.7471Z" fill="#263238"/>
<path id="Vector_14" d="M77.66 15.7221L78.8628 15.4117C78.8628 15.4117 78.1722 16.3041 77.66 15.7221Z" fill="#263238"/>
<path id="Vector_15" d="M69.4267 12.4784C69.389 12.4785 69.3517 12.471 69.3171 12.4563C69.2824 12.4416 69.251 12.4201 69.2249 12.393C69.1991 12.3678 69.1786 12.3376 69.1646 12.3042C69.1506 12.2709 69.1434 12.2352 69.1434 12.199C69.1434 12.1629 69.1506 12.1271 69.1646 12.0938C69.1786 12.0605 69.1991 12.0303 69.2249 12.005C69.6685 11.6605 70.1864 11.4242 70.7374 11.3151C71.2884 11.206 71.8573 11.227 72.3987 11.3765C72.4333 11.3854 72.4658 11.4012 72.4941 11.423C72.5224 11.4449 72.546 11.4722 72.5634 11.5034C72.5808 11.5346 72.5917 11.569 72.5954 11.6046C72.5991 11.6401 72.5956 11.676 72.585 11.7102C72.576 11.7449 72.5601 11.7775 72.5385 11.8061C72.5168 11.8347 72.4896 11.8587 72.4586 11.8767C72.4276 11.8948 72.3933 11.9065 72.3577 11.9112C72.3221 11.9159 72.2859 11.9135 72.2513 11.9042C71.7995 11.7828 71.3261 11.7652 70.8666 11.8525C70.407 11.9398 69.9731 12.1299 69.5974 12.4086C69.5494 12.4495 69.4896 12.474 69.4267 12.4784Z" fill="#263238"/>
<path id="Vector_16" d="M79.4992 13.209C79.4309 13.208 79.3651 13.1833 79.313 13.1391C79.0266 12.8442 78.6782 12.6166 78.293 12.473C77.9078 12.3294 77.4954 12.2733 77.0858 12.3088C77.0148 12.3243 76.9406 12.3109 76.8795 12.2716C76.8184 12.2323 76.7754 12.1703 76.7599 12.0993C76.7445 12.0283 76.7579 11.9541 76.7972 11.893C76.8365 11.8318 76.8984 11.7888 76.9694 11.7734C77.4649 11.7162 77.9668 11.7725 78.4374 11.9378C78.9079 12.1032 79.3347 12.3733 79.6854 12.7279C79.7112 12.7532 79.7318 12.7833 79.7458 12.8166C79.7598 12.85 79.767 12.8857 79.767 12.9219C79.767 12.958 79.7598 12.9938 79.7458 13.0271C79.7318 13.0604 79.7112 13.0906 79.6854 13.1159C79.663 13.1439 79.6347 13.1668 79.6026 13.1829C79.5704 13.199 79.5351 13.2079 79.4992 13.209Z" fill="#263238"/>
<path id="Vector_17" d="M63.6611 16.5839C63.6611 16.5839 67.4169 11.7572 67.5411 7.63661C67.5411 7.63661 80.9581 4.29205 79.732 17.2435C79.732 17.2435 82.6187 5.99925 71.6616 4.16013C60.7045 2.32101 58.4231 18.4075 63.4127 24.018C63.4205 24.0102 61.3408 19.5948 63.6611 16.5839Z" fill="#263238"/>
<path id="Vector_18" d="M64.5146 18.0739C64.5592 17.3249 64.3048 16.5889 63.8072 16.0273C63.3097 15.4657 62.6096 15.1245 61.8607 15.0786C59.8509 15.0087 58.3144 18.9586 63.1101 20.627C63.7929 20.8675 64.2896 20.239 64.5146 18.0739Z" fill="#E4897B"/>
<path id="Vector_19" d="M73.7955 24.1724C72.9929 24.212 72.1995 23.9866 71.5376 23.5309C70.8757 23.0751 70.3821 22.4143 70.1328 21.6504C70.1131 21.5794 70.1215 21.5036 70.1561 21.4386C70.1908 21.3736 70.2491 21.3244 70.319 21.3012C70.389 21.2818 70.4637 21.2904 70.5275 21.3251C70.5912 21.3599 70.6389 21.4181 70.6605 21.4874C70.8855 22.1557 71.3281 22.7291 71.9176 23.116C72.5071 23.5029 73.2093 23.6809 73.9119 23.6214C73.9484 23.6171 73.9854 23.6204 74.0206 23.6312C74.0557 23.6421 74.0882 23.6601 74.116 23.6842C74.1438 23.7083 74.1662 23.738 74.1818 23.7713C74.1974 23.8045 74.206 23.8407 74.2068 23.8775C74.2112 23.9491 74.1879 24.0197 74.1416 24.0746C74.0954 24.1295 74.0298 24.1645 73.9585 24.1724H73.7955Z" fill="#263238"/>
<path id="Vector_20" d="M76.1855 2.87235C76.1855 2.87235 80.2906 1.25051 80.0655 4.93651C79.8405 8.62251 64.4058 17.7327 56.576 17.1507C56.576 17.1507 58.71 16.5998 59.3851 15.6686C58.39 13.7069 58.1317 11.4533 58.6572 9.31731C59.1826 7.18133 60.4569 5.30476 62.2485 4.02859C70.3965 -2.43549 76.1855 2.87235 76.1855 2.87235Z" fill="#263238"/>
<path id="Vector_21" d="M67.7119 12.2073C67.805 13.9455 66.7807 15.3113 65.6167 16.6693C71.5298 14.869 76.3488 11.7494 79.4062 6.48816L67.7119 12.2073Z" fill="#263238"/>
<path id="Vector_22" d="M51.4312 195.25L55.1793 197.454C56.9373 195.088 58.8396 192.834 60.8751 190.703C61.9615 189.554 63.1022 188.281 64.2895 186.916C66.6641 184.192 69.2326 181.08 71.9253 177.736L74.3387 174.717C83.7205 162.914 93.8629 149.039 97.6575 139.657C98.837 136.74 99.4113 134.264 99.1552 132.409C98.3792 126.807 96.2064 118.372 93.7232 110.224C89.9363 97.7688 85.6761 85.9658 85.6761 85.9658L75.2001 103.69C75.2001 103.69 78.4127 111.349 81.3382 119.505C84.2172 127.513 86.8168 136.01 85.8545 138.222C85.7614 138.439 85.645 138.695 85.5131 138.998C83.7749 142.598 78.9637 150.754 73.5006 159.763L71.8322 162.472C68.899 167.283 65.8493 172.226 63.0246 176.766C61.9227 178.55 60.8518 180.273 59.8353 181.903C55.0241 189.632 51.4312 195.25 51.4312 195.25Z" fill="#E4897B"/>
<path id="Vector_23" opacity="0.2" d="M74.5483 174.709C69.5975 180.917 64.8406 186.582 61.302 190.695C60.7976 188.165 60.2854 185.17 59.8819 181.903C63.9714 175.338 68.9767 167.236 73.524 159.732C73.4275 164.745 73.7703 169.756 74.5483 174.709Z" fill="black"/>
<path id="Vector_24" d="M55.8699 123.4C57.1658 132.239 58.9739 140.247 60.2155 145.02C60.9372 147.883 61.426 149.575 61.426 149.575C61.4435 158.651 61.9773 167.719 63.0246 176.735C63.4204 180.289 63.8472 183.719 64.2895 186.877C65.9191 198.626 67.634 207.053 67.634 207.053L72.096 206.471L71.9253 177.689L71.8322 162.472L71.708 141.714L71.6615 138.098L71.4442 122.314L71.126 99.034L55.606 92.05C53.5264 100.896 54.3024 112.754 55.8699 123.4Z" fill="#E4897B"/>
<path id="Vector_25" opacity="0.2" d="M85.6683 85.959L75.2 103.691C75.2 103.691 78.4127 111.35 81.3382 119.505C84.2172 127.514 86.8168 136.011 85.8545 138.223C85.7614 138.44 85.645 138.696 85.5131 138.999C89.3931 140.318 93.9637 140.178 97.6575 139.681C98.837 136.764 99.4112 134.288 99.1552 132.434C98.3792 126.831 96.2064 118.396 93.7232 110.248C89.944 97.762 85.6683 85.959 85.6683 85.959Z" fill="black"/>
<path id="Vector_26" opacity="0.2" d="M55.8699 123.4C57.1658 132.239 58.9739 140.247 60.2155 145.02C65.3138 143.39 68.7515 140.364 71.6615 138.098L71.4442 122.314L71.126 99.034L55.606 92.05C53.5264 100.896 54.3024 112.754 55.8699 123.4Z" fill="black"/>
<path id="Vector_27" d="M51.7727 192.805C52.2305 192.471 56.095 198.237 56.095 198.237C56.095 198.237 55.2337 204.266 56.9797 208.162C58.7257 212.058 55.3345 211.724 52.5177 208.03L45.5337 198.912C43.5471 196.32 47.0313 196.25 51.7727 192.805Z" fill="#263238"/>
<path id="Vector_28" d="M57.4063 202.631C56.5216 202.421 55.9551 199.923 55.8543 199.418C55.8505 199.395 55.8505 199.372 55.8543 199.348V199.294C55.8495 199.279 55.8495 199.263 55.8543 199.248C55.8723 199.231 55.8934 199.218 55.9163 199.209C56.0017 199.209 57.6313 198.666 58.5159 199.209C58.6516 199.285 58.769 199.389 58.8601 199.515C58.9513 199.641 59.0139 199.786 59.0436 199.938C59.1134 200.28 59.0436 200.52 58.8574 200.652C58.6711 200.784 57.9572 200.652 57.3752 200.419C57.7641 200.784 58.0458 201.248 58.19 201.762C58.2053 201.864 58.2002 201.968 58.1749 202.068C58.1495 202.168 58.1046 202.261 58.0426 202.344C57.9783 202.437 57.8943 202.516 57.7964 202.574C57.6985 202.631 57.5892 202.667 57.4761 202.677L57.4063 202.631ZM57.4838 202.274C57.5226 202.274 57.6313 202.274 57.8098 202.088C57.8729 201.997 57.898 201.886 57.8796 201.777C57.802 201.211 56.9406 200.365 56.3276 199.853C56.5759 200.931 57.0726 202.173 57.4838 202.274ZM56.475 199.457C57.414 200.031 58.4461 200.497 58.7022 200.318C58.7798 200.264 58.7565 200.086 58.7022 199.985C58.6845 199.882 58.644 199.785 58.5835 199.7C58.523 199.616 58.4442 199.546 58.353 199.496C58.0935 199.365 57.8049 199.304 57.5149 199.317C57.1642 199.325 56.8154 199.372 56.475 199.457Z" fill="#F3C8CF"/>
<path id="Vector_29" d="M66.051 204.244C66.051 203.678 73.035 204.12 73.035 204.12C73.035 204.12 77.303 208.466 81.4546 209.443C85.6062 210.421 83.2859 212.912 78.6532 212.912H67.1529C63.8549 212.912 65.888 210.103 66.051 204.244Z" fill="#263238"/>
<path id="Vector_30" d="M73.7878 205.02C73.7627 205.011 73.741 204.995 73.7258 204.973V204.927C73.7258 204.927 73.7258 204.927 73.7258 204.865C73.7221 204.842 73.7221 204.818 73.7258 204.795C73.7258 204.709 74.3388 203.103 75.2778 202.707C75.4175 202.642 75.5698 202.608 75.724 202.608C75.8782 202.608 76.0305 202.642 76.1702 202.707C76.4883 202.855 76.6435 203.049 76.628 203.289C76.628 203.654 76.1159 204.019 75.5494 204.321C76.0726 204.236 76.6092 204.295 77.1014 204.492C77.1916 204.54 77.2708 204.606 77.3336 204.686C77.3965 204.766 77.4416 204.859 77.4661 204.958C77.5255 205.088 77.5417 205.233 77.5124 205.373C77.483 205.512 77.4097 205.639 77.3031 205.734C77.1223 205.854 76.9068 205.911 76.6901 205.897C75.6792 205.775 74.6972 205.478 73.7878 205.02ZM74.4242 204.903C75.4485 205.338 76.7522 205.718 77.0471 205.447C77.0471 205.447 77.1635 205.354 77.0936 205.082C77.0778 205.03 77.0517 204.983 77.0171 204.941C76.9824 204.9 76.9398 204.866 76.8918 204.841C76.6366 204.725 76.3572 204.672 76.0771 204.686C75.5201 204.701 74.9662 204.774 74.4242 204.903ZM75.3864 203.049C74.8384 203.404 74.4194 203.927 74.1914 204.539C75.2235 204.151 76.2167 203.608 76.2323 203.297C76.2323 203.204 76.077 203.111 75.9839 203.064C75.8846 203.016 75.7761 202.99 75.6658 202.987C75.5695 202.989 75.4745 203.01 75.3864 203.049Z" fill="#F3C8CF"/>
<path id="Vector_31" d="M79.7707 60.9868L84.6517 76.4525C93.5242 91.5015 99.7747 107.949 103.136 125.092C103.136 125.092 103.33 132.402 96.928 131.3C90.526 130.198 87.6626 137.935 81.3304 137.935C74.9983 137.935 68.6428 132.627 63.1876 137.935C57.7323 143.243 47.458 137.935 47.458 137.935C47.458 137.935 50.368 83.3201 60.2388 62.0499L79.7707 60.9868Z" fill="#F3C8CF"/>
<path id="Vector_32" d="M23.6894 34.168L30.5182 31.4986C30.5926 31.4691 30.6736 31.4601 30.7527 31.4724C30.8318 31.4846 30.9062 31.5178 30.9683 31.5684L34.4292 34.4862L26.9253 36.884C26.8622 36.9037 26.7957 36.9097 26.7302 36.9017C26.6646 36.8936 26.6015 36.8717 26.5451 36.8375L23.6118 34.9595C23.5411 34.9161 23.4841 34.8537 23.4472 34.7795C23.4103 34.7052 23.3951 34.622 23.4031 34.5395C23.4112 34.457 23.4424 34.3784 23.493 34.3127C23.5436 34.247 23.6116 34.1969 23.6894 34.168Z" fill="#E3887B"/>
<path id="Vector_33" d="M55.5285 34.4322C60.0526 34.1063 60.6656 41.9672 57.8565 43.2243L45.8052 52.2802C42.3831 52.4509 36.7415 42.6501 30.8051 34.4322H34.4291L45.5259 45.6532L55.5285 34.4322Z" fill="#E3887B"/>
<path id="Vector_34" opacity="0.2" d="M46.2087 46.6299L47.6055 43.3552L45.5258 45.6987L46.2087 46.6299Z" fill="black"/>
<path id="Vector_35" d="M30.8206 41.2842V36.054C30.8206 34.7038 30.1766 33.8191 28.1434 33.9588C26.5914 33.9588 25.8853 34.665 25.8154 35.9376V38.0406H26.6923L26.5759 35.9919C26.4983 35.0995 27.0648 34.7115 28.0891 34.6882C29.548 34.5796 30.0679 35.1849 30.0058 36.2402L29.7886 41.3618L10.6369 53.6304C10.179 53.8399 9.98504 54.4995 10.6369 54.4995H52.6262C53.1772 54.4995 53.2858 53.9175 52.6262 53.6304L30.8206 41.2842ZM12.9726 53.0096L30.3162 41.9904L50.857 53.514C50.8688 53.5184 50.8791 53.5264 50.8863 53.5368C50.8936 53.5472 50.8974 53.5595 50.8974 53.5722C50.8974 53.5849 50.8936 53.5972 50.8863 53.6077C50.8791 53.6181 50.8688 53.626 50.857 53.6304H13.1589C13.085 53.6323 13.0126 53.6097 12.953 53.566C12.8934 53.5223 12.85 53.4601 12.8295 53.389C12.8091 53.318 12.8129 53.2422 12.8402 53.1736C12.8675 53.1049 12.9168 53.0472 12.9804 53.0096H12.9726Z" fill="#263238"/>
<path id="Vector_36" opacity="0.4" d="M30.8206 41.2842V36.054C30.8206 34.7038 30.1766 33.8191 28.1434 33.9588C26.5914 33.9588 25.8853 34.665 25.8154 35.9376V38.0406H26.6923L26.5759 35.9919C26.4983 35.0995 27.0648 34.7115 28.0891 34.6882C29.548 34.5796 30.0679 35.1849 30.0058 36.2402L29.7886 41.3618L10.6369 53.6304C10.179 53.8399 9.98504 54.4995 10.6369 54.4995H52.6262C53.1772 54.4995 53.2858 53.9175 52.6262 53.6304L30.8206 41.2842ZM12.9726 53.0096L30.3162 41.9904L50.857 53.514C50.8688 53.5184 50.8791 53.5264 50.8863 53.5368C50.8936 53.5472 50.8974 53.5595 50.8974 53.5722C50.8974 53.5849 50.8936 53.5972 50.8863 53.6077C50.8791 53.6181 50.8688 53.626 50.857 53.6304H13.1589C13.085 53.6323 13.0126 53.6097 12.953 53.566C12.8934 53.5223 12.85 53.4601 12.8295 53.389C12.8091 53.318 12.8129 53.2422 12.8402 53.1736C12.8675 53.1049 12.9168 53.0472 12.9804 53.0096H12.9726Z" fill="white"/>
<path id="Vector_37" d="M20.7871 46.2656C20.9268 46.0716 21.051 45.8466 21.2683 45.7767C21.4855 45.7069 21.7494 45.8311 22.0055 45.9009L22.7039 59.737L21.7416 60.0008L20.7871 46.2656Z" fill="#263238"/>
<path id="Vector_38" opacity="0.3" d="M20.7871 46.2656C20.9268 46.0716 21.051 45.8466 21.2683 45.7767C21.4855 45.7069 21.7494 45.8311 22.0055 45.9009L22.7039 59.737L21.7416 60.0008L20.7871 46.2656Z" fill="white"/>
<path id="Vector_39" d="M42.4608 46.8164L42.81 47.8097L40.5751 59.504L39.8146 59.2479L41.9719 47.2277L42.4608 46.8164Z" fill="#263238"/>
<path id="Vector_40" opacity="0.3" d="M42.4608 46.8164L42.81 47.8097L40.5751 59.504L39.8146 59.2479L41.9719 47.2277L42.4608 46.8164Z" fill="white"/>
<path id="Vector_41" d="M0.704193 147.449C5.16619 153.571 9.66699 155.651 13.8962 156.062C18.6686 155.907 22.3701 152.524 26.1182 147.449C27.0339 145.897 28.5238 145.524 28.9118 147.449L29.7344 149.777C29.7974 149.945 29.9123 150.09 30.0625 150.189C30.2128 150.289 30.3906 150.338 30.5706 150.33C30.7506 150.323 30.9236 150.258 31.0647 150.146C31.2058 150.034 31.3078 149.88 31.3562 149.707L31.9382 147.472C32.0123 147.094 32.2153 146.754 32.5126 146.509C32.8098 146.265 33.1828 146.131 33.5678 146.131C33.9528 146.131 34.3258 146.265 34.623 146.509C34.9203 146.754 35.1233 147.094 35.1974 147.472L35.8958 151.135C36.9822 154.091 40.0396 158.398 46.7598 158.181C51.4158 158.235 54.8302 152.687 58.2834 147.472L41.7624 81.1471L21.4699 80.4875L0.704193 147.449Z" fill="#F3C8CF"/>
<path id="Vector_42" opacity="0.1" d="M0.704193 147.449C5.16619 153.571 9.66699 155.651 13.8962 156.062C18.6686 155.907 22.3701 152.524 26.1182 147.449C27.0339 145.897 28.5238 145.524 28.9118 147.449L29.7344 149.777C29.7974 149.945 29.9123 150.09 30.0625 150.189C30.2128 150.289 30.3906 150.338 30.5706 150.33C30.7506 150.323 30.9236 150.258 31.0647 150.146C31.2058 150.034 31.3078 149.88 31.3562 149.707L31.9382 147.472C32.0123 147.094 32.2153 146.754 32.5126 146.509C32.8098 146.265 33.1828 146.131 33.5678 146.131C33.9528 146.131 34.3258 146.265 34.623 146.509C34.9203 146.754 35.1233 147.094 35.1974 147.472L35.8958 151.135C36.9822 154.091 40.0396 158.398 46.7598 158.181C51.4158 158.235 54.8302 152.687 58.2834 147.472L41.7624 81.1471L21.4699 80.4875L0.704193 147.449Z" fill="white"/>
<path id="Vector_43" opacity="0.2" d="M28.6403 107.639L28.0272 146.176C27.7907 146.104 27.5382 146.106 27.3028 146.181C27.0674 146.256 26.8601 146.4 26.708 146.595L28.6403 107.639Z" fill="black"/>
<path id="Vector_44" opacity="0.2" d="M34.5066 146.471C34.2941 146.294 34.0402 146.174 33.7687 146.123C33.4972 146.071 33.2171 146.089 32.9546 146.176V108.454L34.5066 146.471Z" fill="black"/>
<path id="Vector_45" d="M14.8739 61.1961L20.8103 58.356C21.5266 58.0112 22.3175 57.8506 23.1115 57.8885C23.9055 57.9264 24.6776 58.1618 25.3577 58.5733L31.6511 62.3601L36.8347 59.1242C37.7557 58.5524 38.8117 58.2346 39.8953 58.2032C40.9789 58.1719 42.0515 58.4281 43.0039 58.9457L48.8627 62.1273L42.6082 84.0959L39.1239 85.5625C38.6788 85.7475 38.1967 85.8263 37.7159 85.7926C37.235 85.759 36.7686 85.6138 36.3536 85.3685L32.559 82.8155C32.1646 82.552 31.699 82.4152 31.2247 82.4235C30.7504 82.4318 30.29 82.5848 29.9051 82.8621L27.4141 84.6701C26.9221 85.0236 26.3588 85.2651 25.7636 85.3777C25.1684 85.4903 24.5557 85.4713 23.9686 85.322L20.1973 84.352L14.8739 61.1961Z" fill="#F3C8CF"/>
<path id="Vector_46" opacity="0.2" d="M14.8739 61.1961L20.8103 58.356C21.5266 58.0112 22.3175 57.8506 23.1115 57.8885C23.9055 57.9264 24.6776 58.1618 25.3577 58.5733L31.6511 62.3601L36.8347 59.1242C37.7557 58.5524 38.8117 58.2346 39.8953 58.2032C40.9789 58.1719 42.0515 58.4281 43.0039 58.9457L48.8627 62.1273L42.6082 84.0959L39.1239 85.5625C38.6788 85.7475 38.1967 85.8263 37.7159 85.7926C37.235 85.759 36.7686 85.6138 36.3536 85.3685L32.559 82.8155C32.1646 82.552 31.699 82.4152 31.2247 82.4235C30.7504 82.4318 30.29 82.5848 29.9051 82.8621L27.4141 84.6701C26.9221 85.0236 26.3588 85.2651 25.7636 85.3777C25.1684 85.4903 24.5557 85.4713 23.9686 85.322L20.1973 84.352L14.8739 61.1961Z" fill="white"/>
<path id="Vector_47" d="M76.9771 37.1252C76.9771 37.1252 90.2467 45.087 90.8597 45.6612C91.4728 46.2355 93.4128 47.8884 93.2343 49.6576C93.0558 51.4269 90.9063 52.2572 90.3321 52.2572C88.0894 52.2572 82.5721 45.863 75.0371 38.9411L76.9771 37.1252Z" fill="#E3887B"/>
<path id="Vector_48" d="M63.1876 66.7057L64.0723 66.5737L59.1291 54.9182L58.7489 55.2209L63.1876 66.7057Z" fill="#F3C8CF"/>
<path id="Vector_49" opacity="0.2" d="M63.1876 66.7057L64.0723 66.5737L59.1291 54.9182L58.7489 55.2209L63.1876 66.7057Z" fill="black"/>
<path id="Vector_50" d="M81.3071 67.4429L82.3547 67.0937L85.6139 54.2587L84.706 53.9172L81.3071 67.4429Z" fill="#F3C8CF"/>
<path id="Vector_51" opacity="0.2" d="M81.3071 67.4429L82.3547 67.0937L85.6139 54.2587L84.706 53.9172L81.3071 67.4429Z" fill="black"/>
<path id="Vector_52" d="M55.1018 135.35C58.3299 137.042 58.392 137.174 61.1546 136.98C61.2244 137.399 61.3175 137.973 61.4106 138.532C62.0796 138.489 62.7458 138.651 63.3196 138.998C67.9291 137.096 67.5255 137.353 71.2038 139.091C71.9798 138.703 72.6161 139.564 73.6637 139.308C74.5483 138.617 75.6425 138.664 76.7677 138.796C77.8929 138.928 77.7144 136.631 78.9405 136.615C80.9969 138.377 82.9602 140.751 83.1852 139.975L82.5644 137.733C83.3502 137.621 84.1516 137.712 84.8924 137.997C84.9792 137.795 85.1336 137.629 85.329 137.529C85.5243 137.428 85.7486 137.399 85.9633 137.446L86.0952 136.181C86.9255 135.537 87.9421 135.909 89.0673 135.769C89.3146 135.549 89.6163 135.4 89.941 135.335C90.2658 135.271 90.6018 135.295 90.9142 135.405L91.178 135.118C91.2323 130.982 89.1139 108.803 86.6384 99.3518L61.0304 95.7434C58.9042 105.048 56.9719 119.869 55.1018 135.35Z" fill="#F3C8CF"/>
<path id="Vector_53" opacity="0.4" d="M55.1018 135.35C58.3299 137.042 58.392 137.174 61.1546 136.98C61.2244 137.399 61.3175 137.973 61.4106 138.532C62.0796 138.489 62.7458 138.651 63.3196 138.998C67.9291 137.096 67.5255 137.353 71.2038 139.091C71.9798 138.703 72.6161 139.564 73.6637 139.308C74.5483 138.617 75.6425 138.664 76.7677 138.796C77.8929 138.928 77.7144 136.631 78.9405 136.615C80.9969 138.377 82.9602 140.751 83.1852 139.975L82.5644 137.733C83.3502 137.621 84.1516 137.712 84.8924 137.997C84.9792 137.795 85.1336 137.629 85.329 137.529C85.5243 137.428 85.7486 137.399 85.9633 137.446L86.0952 136.181C86.9255 135.537 87.9421 135.909 89.0673 135.769C89.3146 135.549 89.6163 135.4 89.941 135.335C90.2658 135.271 90.6018 135.295 90.9142 135.405L91.178 135.118C91.2323 130.982 89.1139 108.803 86.6384 99.3518L61.0304 95.7434C58.9042 105.048 56.9719 119.869 55.1018 135.35Z" fill="black"/>
<path id="Vector_54" opacity="0.2" d="M61.1546 136.981C60.5405 137.034 59.9239 137.053 59.3077 137.035L63.1334 115.307L61.1546 136.981Z" fill="black"/>
<path id="Vector_55" opacity="0.2" d="M78.0867 137.245L76.9848 109.627L77.4426 138.494C77.6986 138.1 77.9143 137.682 78.0867 137.245Z" fill="black"/>
<path id="Vector_56" opacity="0.2" d="M82.5566 137.764L81.0046 110.674L83.7361 137.764C83.3453 137.703 82.9474 137.703 82.5566 137.764Z" fill="black"/>
<path id="Vector_57" opacity="0.2" d="M86.9797 135.856C86.6559 135.875 86.3476 136 86.1028 136.213L83.9843 109.627L86.9797 135.856Z" fill="black"/>
<path id="Vector_58" d="M72.7092 46.4988V41.2686C72.7092 39.9184 72.0652 39.0337 70.032 39.1734C68.48 39.1346 67.7739 39.8796 67.704 41.1522V43.2552H68.5809L68.4645 41.2143C68.3869 40.3219 68.9534 39.9261 70.0165 39.9028C71.4832 39.7942 71.9953 40.3995 71.9332 41.4548L71.716 46.5687L52.5643 58.8528C52.1064 59.0623 51.9124 59.7296 52.5643 59.7296H94.5226C95.0658 59.7296 95.1744 59.1399 94.5226 58.8528L72.7092 46.4988ZM55.8545 58.845L72.2204 48.5009L91.3022 58.845H55.8545Z" fill="#263238"/>
<path id="Vector_59" opacity="0.4" d="M72.7092 46.4988V41.2686C72.7092 39.9184 72.0652 39.0337 70.032 39.1734C68.48 39.1346 67.7739 39.8796 67.704 41.1522V43.2552H68.5809L68.4645 41.2143C68.3869 40.3219 68.9534 39.9261 70.0165 39.9028C71.4832 39.7942 71.9953 40.3995 71.9332 41.4548L71.716 46.5687L52.5643 58.8528C52.1064 59.0623 51.9124 59.7296 52.5643 59.7296H94.5226C95.0658 59.7296 95.1744 59.1399 94.5226 58.8528L72.7092 46.4988ZM55.8545 58.845L72.2204 48.5009L91.3022 58.845H55.8545Z" fill="white"/>
<path id="Vector_60" d="M56.9643 73.659C56.5375 72.7278 59.7734 69.1426 62.4351 65.9766L72.9654 69.8178C74.1992 68.9176 79.5381 67.6062 83.3871 66.4422C86.1108 68.9098 88.3457 71.2068 88.9743 72.9606C86.5842 78.8426 85.5056 85.6637 82.8051 89.2566C85.6142 93.6332 87.9189 98.0409 87.3679 99.2204C83.6285 101.064 79.6082 102.273 75.4719 102.798C68.0921 100.555 62.6213 98.2194 60.2157 95.8138C60.2157 93.5556 62.5437 90.9715 64.5303 87.0838C62.373 86.2923 59.8432 79.5799 56.9643 73.659Z" fill="#F3C8CF"/>
<path id="Vector_61" opacity="0.2" d="M56.9643 73.659C56.5375 72.7278 59.7734 69.1426 62.4351 65.9766L72.9654 69.8178C74.1992 68.9176 79.5381 67.6062 83.3871 66.4422C86.1108 68.9098 88.3457 71.2068 88.9743 72.9606C86.5842 78.8426 85.5056 85.6637 82.8051 89.2566C85.6142 93.6332 87.9189 98.0409 87.3679 99.2204C83.6285 101.064 79.6082 102.273 75.4719 102.798C68.0921 100.555 62.6213 98.2194 60.2157 95.8138C60.2157 93.5556 62.5437 90.9715 64.5303 87.0838C62.373 86.2923 59.8432 79.5799 56.9643 73.659Z" fill="black"/>
<path id="Vector_62" d="M61.6591 68.1023L62.1402 67.4427L58.8344 54.6077C58.8229 54.5957 58.809 54.5862 58.7937 54.5797C58.7783 54.5732 58.7618 54.5698 58.7452 54.5698C58.7285 54.5698 58.7121 54.5732 58.6967 54.5797C58.6814 54.5862 58.6675 54.5957 58.6559 54.6077L58.3766 54.7784C58.3068 54.7784 58.2757 54.8482 58.299 54.9336L61.6591 68.1023Z" fill="#F3C8CF"/>
<path id="Vector_63" d="M82.8203 66.6284L85.7303 53.7235C85.7691 53.6459 85.8467 53.6381 85.9243 53.7235L86.3977 53.9873C86.4675 54.0261 86.5141 54.0649 86.483 54.1193L83.3092 67.1173L82.8203 66.6284Z" fill="#F3C8CF"/>
<path id="Vector_64" d="M70.4666 37.0238L67.1298 38.9561C67.0799 38.9831 67.039 39.0243 67.0125 39.0745C66.986 39.1247 66.9749 39.1816 66.9807 39.2381C66.9865 39.2945 67.009 39.348 67.0452 39.3918C67.0814 39.4355 67.1297 39.4675 67.1841 39.4838L71.8401 40.9504C72.091 41.0292 72.3584 41.0399 72.6148 40.9812C72.8712 40.9226 73.1073 40.7968 73.299 40.6167L77.0005 37.1247L71.0331 36.8919C70.8355 36.8802 70.6387 36.9261 70.4666 37.0238Z" fill="#E3887B"/>
</g>
</svg>
