<svg width="21" height="20" viewBox="0 0 21 20" fill="none" xmlns="http://www.w3.org/2000/svg">
<g id="clarity:email-line">
<path id="Vector" d="M18.7675 3.33447H3.21309C2.91843 3.33447 2.63584 3.45153 2.42748 3.65988C2.21912 3.86824 2.10207 4.15084 2.10207 4.4455V15.5558C2.10207 15.8504 2.21912 16.133 2.42748 16.3414C2.63584 16.5497 2.91843 16.6668 3.21309 16.6668H18.7675C19.0621 16.6668 19.3447 16.5497 19.5531 16.3414C19.7614 16.133 19.8785 15.8504 19.8785 15.5558V4.4455C19.8785 4.15084 19.7614 3.86824 19.5531 3.65988C19.3447 3.45153 19.0621 3.33447 18.7675 3.33447ZM17.912 15.5558H4.13524L8.02383 11.5338L7.2239 10.7617L3.21309 14.9114V5.28988L10.1181 12.1616C10.3263 12.3685 10.6079 12.4846 10.9014 12.4846C11.1949 12.4846 11.4765 12.3685 11.6847 12.1616L18.7675 5.11767V14.8391L14.6789 10.7506L13.8956 11.5338L17.912 15.5558ZM3.94082 4.4455H17.8675L10.9014 11.3727L3.94082 4.4455Z" fill="#4A3F48"/>
</g>
</svg>
