<svg width="209" height="238" viewBox="0 0 209 238" fill="none" xmlns="http://www.w3.org/2000/svg">
<g id="Mirror">
<path id="Vector" d="M208.659 237.298H175.267V234.195H205.081L179.473 55.0549L182.546 54.6125L208.659 237.298Z" fill="#F3C8CF"/>
<g id="Group" opacity="0.2">
<path id="Vector_2" d="M208.659 237.298H175.267V234.195H205.081L179.473 55.0549L182.546 54.6125L208.659 237.298Z" fill="#F5F5F5"/>
</g>
<path id="Vector_3" d="M187.031 0.470581H111.829V237.57H187.031V0.470581Z" fill="#F3C8CF"/>
<path id="Vector_4" opacity="0.43" d="M187.047 0.470581H111.845V237.57H187.047V0.470581Z" fill="white"/>
<path id="Vector_5" opacity="0.3" d="M183.865 5.7937H113.071V231.998H183.865V5.7937Z" fill="white"/>
<path id="Vector_6" d="M182.593 8.5564H114.313V229.484H182.593V8.5564Z" fill="#E6E6E6"/>
<path id="Vector_7" d="M139.758 57.1802L134.403 63.8693L128.661 71.0473L128.513 77.2165L142.218 65.1419L139.758 57.1802Z" fill="#E3887B"/>
<path id="Vector_8" opacity="0.2" d="M138.5 62.7913L137.709 67.4628L132.983 73.9346L128.614 77.2171L129.002 70.7065L130.88 68.3164L138.5 62.7913Z" fill="black"/>
<path id="Vector_9" d="M149.962 45.4396C149.962 45.4396 151.902 35.7396 161.889 37.6796C171.876 39.6196 167.228 53.254 165.187 57.5452C163.146 61.8365 162.859 65.3052 165.288 67.2685C165.288 67.2685 161.99 68.2075 160.244 65.9416C160.244 65.9416 160.337 68.0445 161.501 68.9136C161.501 68.9136 151.46 65.3285 154.005 53.5876C156.55 41.8467 149.962 45.4396 149.962 45.4396Z" fill="#263238"/>
<path id="Vector_10" d="M139.168 85.9394L158.707 86.9948C158.707 86.9948 159.685 76.9068 161.299 71.5291C161.454 71.0092 161.625 70.4737 161.804 69.915C162.23 68.5958 164.783 60.9988 162.975 58.6397C161.119 58.0828 159.215 57.7009 157.287 57.499C154.254 57.0392 151.197 56.7619 148.131 56.6687C144.165 56.6687 139.595 57.0257 139.595 57.0257C139.595 57.0257 138.95 57.1653 138.539 60.7582C138.353 62.4809 136.987 65.6237 137.096 70.0702C137.096 70.5901 137.973 71.4282 138.454 71.8395C138.586 75.8281 138.819 80.6083 139.168 85.9394Z" fill="#263238"/>
<path id="Vector_11" opacity="0.1" d="M139.168 85.9394L158.707 86.9948C158.707 86.9948 159.685 76.9068 161.299 71.5291C161.454 71.0092 161.625 70.4737 161.804 69.915C162.23 68.5958 164.783 60.9988 162.975 58.6397C161.119 58.0828 159.215 57.7009 157.287 57.499C154.254 57.0392 151.197 56.7619 148.131 56.6687C144.165 56.6687 139.595 57.0257 139.595 57.0257C139.595 57.0257 138.95 57.1653 138.539 60.7582C138.353 62.4809 136.987 65.6237 137.096 70.0702C137.096 70.5901 137.973 71.4282 138.454 71.8395C138.586 75.8281 138.819 80.6083 139.168 85.9394Z" fill="white"/>
<path id="Vector_12" d="M147.37 61.4017C153.539 60.6257 155.394 57.9718 155.394 57.9718C152.872 55.5972 153.33 52.0897 153.974 49.9014C154.174 49.2078 154.434 48.5327 154.75 47.8838L147.324 49.2728C147.495 50.2991 147.591 51.3365 147.611 52.3768C147.638 53.1585 147.568 53.9406 147.401 54.7048C146.897 56.9242 145.632 56.9552 145.632 56.9552C144.336 59.3841 147.37 61.4017 147.37 61.4017Z" fill="#E3887B"/>
<path id="Vector_13" opacity="0.2" d="M147.285 54.8839C147.234 55.3126 147.075 55.7214 146.825 56.0727C146.574 56.424 146.238 56.7064 145.849 56.8938C148.798 56.5058 151.793 54.8762 153.198 52.8275C153.547 51.617 153.811 50.4995 153.811 50.4995L146.998 51.7722C147.169 52.801 147.265 53.841 147.285 54.8839Z" fill="black"/>
<path id="Vector_14" d="M141.915 30.3694C141.915 30.3694 136.879 30.5634 135.521 34.8314C134.163 39.0994 135.241 43.8719 142.761 48.9624C150.28 54.053 156.573 49.0478 159.483 45.5791C162.393 42.1103 160.935 30.3462 152.593 28.9494C144.251 27.5526 141.915 30.3694 141.915 30.3694Z" fill="#263238"/>
<path id="Vector_15" d="M146.734 31.7205C140.34 32.6439 138.772 36.3765 139.261 43.0268C139.858 51.3455 142.536 56.9327 150.272 54.0227C160.795 50.0962 157.357 30.215 146.734 31.7205Z" fill="#E4897B"/>
<path id="Vector_16" d="M143.343 42.1029C142.97 43.1325 142.472 44.1124 141.86 45.0207C142.086 45.2575 142.373 45.4277 142.689 45.5126C143.005 45.5974 143.339 45.5937 143.653 45.5018L143.343 42.1029Z" fill="#DE5753"/>
<path id="Vector_17" d="M147.176 41.032C147.246 41.5597 147.579 41.9477 147.952 41.9089C148.324 41.8701 148.542 41.4045 148.472 40.8768C148.402 40.3491 148.076 39.9534 147.696 39.9999C147.316 40.0465 147.114 40.4888 147.176 41.032Z" fill="#263238"/>
<path id="Vector_18" d="M147.851 39.9922L146.648 39.6818C146.648 39.6818 147.339 40.5742 147.851 39.9922Z" fill="#263238"/>
<path id="Vector_19" d="M140.611 41.6923C140.673 42.22 141.015 42.6157 141.387 42.5692C141.76 42.5226 141.969 42.0725 141.907 41.5449C141.845 41.0172 141.511 40.6214 141.131 40.6602C140.751 40.699 140.549 41.1646 140.611 41.6923Z" fill="#263238"/>
<path id="Vector_20" d="M141.286 40.6666L140.083 40.3562C140.083 40.3562 140.766 41.2564 141.286 40.6666Z" fill="#263238"/>
<path id="Vector_21" d="M149.52 37.4315C149.558 37.4316 149.596 37.4233 149.631 37.4072C149.666 37.3911 149.697 37.3676 149.721 37.3384C149.772 37.2863 149.8 37.2167 149.8 37.1444C149.8 37.072 149.772 37.0024 149.721 36.9504C149.278 36.6058 148.76 36.3695 148.209 36.2604C147.658 36.1513 147.089 36.1723 146.548 36.3218C146.513 36.3315 146.48 36.3479 146.452 36.3701C146.424 36.3923 146.4 36.4198 146.383 36.4512C146.365 36.4825 146.354 36.5171 146.349 36.5528C146.345 36.5885 146.348 36.6247 146.357 36.6594C146.367 36.694 146.384 36.7264 146.406 36.7547C146.428 36.783 146.455 36.8067 146.487 36.8243C146.518 36.842 146.553 36.8533 146.588 36.8576C146.624 36.8619 146.66 36.8591 146.695 36.8495C147.147 36.7281 147.62 36.7105 148.08 36.7978C148.539 36.8852 148.973 37.0752 149.349 37.3539C149.394 37.4004 149.455 37.4281 149.52 37.4315Z" fill="#263238"/>
<path id="Vector_22" d="M139.447 38.1607C139.514 38.1614 139.578 38.1363 139.626 38.0908C139.911 37.792 140.26 37.562 140.648 37.4181C141.035 37.2743 141.45 37.2204 141.861 37.2605C141.933 37.2742 142.007 37.2592 142.068 37.2185C142.129 37.1779 142.172 37.1149 142.187 37.0432C142.195 37.008 142.195 36.9716 142.189 36.9361C142.183 36.9006 142.17 36.8667 142.15 36.8363C142.131 36.806 142.105 36.7798 142.076 36.7594C142.046 36.739 142.012 36.7246 141.977 36.7173C141.481 36.6629 140.979 36.7211 140.509 36.8877C140.039 37.0543 139.612 37.325 139.261 37.6795C139.217 37.7158 139.185 37.7651 139.171 37.8204C139.156 37.8757 139.16 37.9341 139.18 37.9874C139.201 38.0408 139.238 38.0862 139.286 38.1173C139.334 38.1484 139.39 38.1636 139.447 38.1607Z" fill="#263238"/>
<path id="Vector_23" d="M155.278 41.5212C155.278 41.5212 151.53 36.7022 151.398 32.5739C151.398 32.5739 137.973 29.2293 139.207 42.1885C139.207 42.1885 136.32 30.9443 147.277 29.0974C158.234 27.2505 160.516 43.3448 155.526 48.963C155.526 48.963 157.606 44.5398 155.278 41.5212Z" fill="#263238"/>
<path id="Vector_24" d="M154.424 43.0258C154.377 42.2768 154.63 41.5398 155.126 40.9768C155.622 40.4137 156.321 40.0705 157.07 40.0226C159.088 39.9528 160.616 43.9026 155.829 45.5788C155.153 45.8194 154.649 45.1831 154.424 43.0258Z" fill="#E4897B"/>
<path id="Vector_25" d="M145.151 49.126C145.954 49.1625 146.747 48.935 147.408 48.4781C148.069 48.0212 148.563 47.3603 148.813 46.5963C148.833 46.5263 148.824 46.4516 148.789 46.3878C148.755 46.3241 148.696 46.2764 148.627 46.2548C148.592 46.2442 148.556 46.2405 148.52 46.2442C148.484 46.2478 148.449 46.2586 148.417 46.276C148.385 46.2933 148.357 46.3169 148.335 46.3452C148.312 46.3736 148.295 46.4062 148.286 46.4411C148.061 47.1093 147.618 47.6828 147.028 48.0697C146.439 48.4565 145.737 48.6345 145.034 48.5751C144.998 48.5708 144.962 48.5739 144.927 48.5842C144.893 48.5946 144.86 48.6119 144.833 48.6352C144.805 48.6585 144.783 48.6872 144.766 48.7196C144.75 48.752 144.741 48.7873 144.739 48.8234C144.735 48.8593 144.738 48.8957 144.748 48.9303C144.759 48.9649 144.776 48.9971 144.799 49.0247C144.823 49.0524 144.851 49.075 144.884 49.091C144.916 49.1071 144.951 49.1164 144.988 49.1183L145.151 49.126Z" fill="#263238"/>
<path id="Vector_26" d="M142.784 27.8401C142.784 27.8401 138.679 26.2183 138.857 29.9043C139.036 33.5903 154.556 42.6928 162.417 42.1185C162.417 42.1185 160.283 41.5598 159.6 40.6286C160.597 38.6672 160.856 36.4132 160.33 34.2767C159.805 32.1403 158.529 30.2637 156.736 28.9886C148.55 22.5168 142.784 27.8401 142.784 27.8401Z" fill="#263238"/>
<path id="Vector_27" d="M151.235 37.1519C151.141 38.8979 152.166 40.2559 153.33 41.6139C147.417 39.8214 142.598 36.6941 139.54 31.4406L151.235 37.1519Z" fill="#263238"/>
<path id="Vector_28" d="M167.515 220.195L163.736 222.399C161.978 220.033 160.076 217.779 158.04 215.647C156.954 214.499 155.813 213.226 154.626 211.861C152.251 209.137 149.682 206.025 146.99 202.68L144.576 199.662C135.195 187.859 125.052 173.984 121.258 164.602C120.078 161.684 119.504 159.17 119.76 157.354C120.536 151.752 122.709 143.316 125.192 135.168C128.979 122.714 133.239 110.911 133.239 110.911L143.707 128.642C143.707 128.642 140.495 136.301 137.569 144.457C134.69 152.465 132.091 160.963 133.053 163.174C133.146 163.392 133.262 163.648 133.394 163.95C135.132 167.551 139.944 175.707 145.407 184.716L147.075 187.455C150.008 192.267 153.058 197.21 155.883 201.749C156.985 203.534 158.055 205.257 159.072 206.886C163.922 214.584 167.515 220.195 167.515 220.195Z" fill="#E4897B"/>
<path id="Vector_29" opacity="0.2" d="M144.398 199.654C149.349 205.862 154.106 211.527 157.644 215.64C158.149 213.11 158.661 210.115 159.064 206.848C154.975 200.283 149.97 192.181 145.422 184.677C145.519 189.69 145.176 194.701 144.398 199.654Z" fill="black"/>
<path id="Vector_30" d="M147.021 202.674L147.114 187.417L147.238 166.659L147.285 163.043L147.502 147.259L147.82 123.979L163.34 116.995C165.42 125.842 164.644 137.699 163.076 148.346C161.78 157.184 159.972 165.193 158.731 169.965C158.009 172.829 157.528 174.505 157.528 174.505C157.51 183.581 156.977 192.649 155.929 201.665C155.534 205.219 155.107 208.649 154.665 211.807C153.78 218.201 152.872 223.61 152.22 227.211H146.881L147.021 202.674Z" fill="#E4897B"/>
<path id="Vector_31" opacity="0.2" d="M133.278 110.873L143.746 128.604C143.746 128.604 140.534 136.263 137.608 144.419C134.729 152.427 132.13 160.925 133.092 163.136C133.185 163.353 133.301 163.61 133.433 163.912C129.553 165.231 124.983 165.092 121.289 164.595C120.109 161.677 119.535 159.163 119.791 157.347C120.567 151.744 122.74 143.309 125.223 135.161C129.018 122.707 133.278 110.873 133.278 110.873Z" fill="black"/>
<path id="Vector_32" opacity="0.2" d="M163.076 148.346C161.78 157.184 159.972 165.193 158.731 169.965C153.632 168.336 150.195 165.309 147.285 163.043L147.502 147.259L147.82 123.979L163.34 116.995C165.42 125.842 164.644 137.699 163.076 148.346Z" fill="black"/>
<path id="Vector_33" d="M134.295 101.397L139.168 85.9392L158.708 86.9946C168.602 108.304 171.496 162.864 171.496 162.864C171.496 162.864 161.214 168.172 155.767 162.864C150.319 157.556 143.948 162.864 137.616 162.864C131.284 162.864 128.428 155.104 122.026 156.222C119.698 156.625 118.286 155.934 117.37 154.895V142.905C120.961 128.319 126.662 114.336 134.295 101.397Z" fill="#F3C8CF"/>
<path id="Vector_34" d="M162.851 223.206C162.851 223.206 166.731 217.417 167.173 217.774C171.915 221.219 175.391 221.289 173.381 223.912L170.813 227.272H163.053C163.087 225.914 163.02 224.554 162.851 223.206Z" fill="#263238"/>
<path id="Vector_35" d="M160.034 225.572C160.337 225.774 160.935 225.572 161.517 225.34C161.124 225.701 160.841 226.167 160.702 226.682C160.685 226.783 160.689 226.886 160.715 226.985C160.74 227.084 160.786 227.176 160.849 227.256H161.99C162.537 226.373 162.911 225.393 163.092 224.37C163.1 224.347 163.1 224.322 163.092 224.3C163.094 224.282 163.094 224.263 163.092 224.245V224.199H163.03C162.952 224.199 161.323 223.663 160.438 224.199C160.303 224.276 160.186 224.381 160.095 224.506C160.004 224.632 159.941 224.776 159.91 224.928C159.797 225.223 159.838 225.438 160.034 225.572ZM162.619 224.796C162.339 225.867 161.843 227.124 161.455 227.21C161.455 227.21 161.315 227.249 161.136 227.024C161.105 226.981 161.082 226.932 161.07 226.88C161.058 226.827 161.057 226.773 161.067 226.721C161.144 226.154 162.006 225.316 162.619 224.804V224.796ZM160.205 224.921C160.224 224.818 160.266 224.72 160.328 224.635C160.39 224.551 160.47 224.481 160.562 224.432C160.819 224.302 161.105 224.24 161.392 224.253C161.753 224.262 162.112 224.309 162.463 224.393C161.532 224.975 160.5 225.433 160.244 225.262C160.159 225.215 160.19 225.029 160.205 224.944V224.921Z" fill="#F3C8CF"/>
<path id="Vector_36" d="M176.486 71.7695L176.137 72.7551L178.371 84.4571L179.132 84.1933L176.975 72.1731L176.486 71.7695Z" fill="#263238"/>
<path id="Vector_37" opacity="0.3" d="M176.486 71.7695L176.137 72.7551L178.371 84.4571L179.132 84.1933L176.975 72.1731L176.486 71.7695Z" fill="white"/>
<path id="Vector_38" d="M142.008 62.0693C142.008 62.0693 128.731 70.0311 128.125 70.6053C127.52 71.1796 125.572 72.8325 125.751 74.6095C125.929 76.3865 128.079 77.2013 128.653 77.2013C130.888 77.2013 136.413 70.8071 143.948 63.8852L142.008 62.0693Z" fill="#E3887B"/>
<path id="Vector_39" d="M155.759 91.6502L154.874 91.5183L159.817 79.8628L160.197 80.1654L155.759 91.6502Z" fill="#F3C8CF"/>
<path id="Vector_40" opacity="0.2" d="M155.759 91.6502L154.874 91.5183L159.817 79.8628L160.197 80.1654L155.759 91.6502Z" fill="black"/>
<path id="Vector_41" d="M137.639 92.396L136.592 92.0468L133.332 79.2117L134.24 78.8625L137.639 92.396Z" fill="#F3C8CF"/>
<path id="Vector_42" opacity="0.2" d="M137.639 92.396L136.592 92.0468L133.332 79.2117L134.24 78.8625L137.639 92.396Z" fill="black"/>
<path id="Vector_43" d="M163.845 160.295C160.609 161.987 160.554 162.127 157.792 161.925C157.722 162.352 157.629 162.918 157.528 163.477C156.861 163.43 156.197 163.593 155.627 163.942C151.01 162.033 151.421 162.297 147.743 164.028C146.967 163.64 146.33 164.509 145.283 164.245C144.824 163.96 144.314 163.769 143.781 163.682C143.248 163.595 142.704 163.615 142.179 163.741C140.976 163.741 141.232 161.568 140.014 161.552C137.957 163.314 135.994 165.688 135.761 164.912L136.39 162.678C135.605 162.56 134.802 162.648 134.062 162.934C133.972 162.732 133.816 162.567 133.62 162.467C133.424 162.367 133.199 162.337 132.983 162.383L132.859 161.118C132.029 160.474 131.012 160.854 129.887 160.714C129.641 160.491 129.34 160.339 129.014 160.275C128.689 160.211 128.352 160.237 128.04 160.35L127.776 160.055C127.722 155.926 129.84 133.74 132.316 124.289L157.924 120.68C160.066 130.016 161.975 144.822 163.845 160.295Z" fill="#F3C8CF"/>
<path id="Vector_44" opacity="0.4" d="M163.845 160.295C160.609 161.987 160.554 162.127 157.792 161.925C157.722 162.352 157.629 162.918 157.528 163.477C156.861 163.43 156.197 163.593 155.627 163.942C151.01 162.033 151.421 162.297 147.743 164.028C146.967 163.64 146.33 164.509 145.283 164.245C144.824 163.96 144.314 163.769 143.781 163.682C143.248 163.595 142.704 163.615 142.179 163.741C140.976 163.741 141.232 161.568 140.014 161.552C137.957 163.314 135.994 165.688 135.761 164.912L136.39 162.678C135.605 162.56 134.802 162.648 134.062 162.934C133.972 162.732 133.816 162.567 133.62 162.467C133.424 162.367 133.199 162.337 132.983 162.383L132.859 161.118C132.029 160.474 131.012 160.854 129.887 160.714C129.641 160.491 129.34 160.339 129.014 160.275C128.689 160.211 128.352 160.237 128.04 160.35L127.776 160.055C127.722 155.926 129.84 133.74 132.316 124.289L157.924 120.68C160.066 130.016 161.975 144.822 163.845 160.295Z" fill="black"/>
<path id="Vector_45" opacity="0.2" d="M157.792 161.924C158.406 161.98 159.022 162.001 159.639 161.986L155.813 140.258L157.792 161.924Z" fill="black"/>
<path id="Vector_46" opacity="0.2" d="M140.86 162.197L141.961 134.571L141.504 163.446C141.251 163.05 141.035 162.632 140.86 162.197Z" fill="black"/>
<path id="Vector_47" opacity="0.2" d="M136.39 162.716L137.942 135.618L135.202 162.716C135.596 162.655 135.996 162.655 136.39 162.716Z" fill="black"/>
<path id="Vector_48" opacity="0.2" d="M131.967 160.8C132.29 160.822 132.597 160.947 132.844 161.157L134.962 134.571L131.967 160.8Z" fill="black"/>
<path id="Vector_49" d="M124.424 83.7971C123.764 84.0842 123.873 84.6662 124.424 84.6662H166.421C167.065 84.6662 166.879 84.0066 166.421 83.7971L147.262 71.5053L147.044 66.3914C146.99 65.3438 147.502 64.7385 148.969 64.8394C149.993 64.8394 150.521 65.2585 150.482 66.1509L150.366 68.1917H151.235V66.0966C151.173 64.8239 150.459 64.0789 148.907 64.1177C146.881 63.9703 146.222 64.8937 146.23 66.2129V71.4354L124.424 83.7971ZM127.644 83.7971L146.718 73.453L163.092 83.7971H127.644Z" fill="#263238"/>
<path id="Vector_50" opacity="0.4" d="M124.424 83.7971C123.764 84.0842 123.873 84.6662 124.424 84.6662H166.421C167.065 84.6662 166.879 84.0066 166.421 83.7971L147.262 71.5053L147.044 66.3914C146.99 65.3438 147.502 64.7385 148.969 64.8394C149.993 64.8394 150.521 65.2585 150.482 66.1509L150.366 68.1917H151.235V66.0966C151.173 64.8239 150.459 64.0789 148.907 64.1177C146.881 63.9703 146.222 64.8937 146.23 66.2129V71.4354L124.424 83.7971ZM127.644 83.7971L146.718 73.453L163.092 83.7971H127.644Z" fill="white"/>
<path id="Vector_51" d="M161.982 98.6038C162.409 97.6804 159.173 94.0952 156.511 90.9214L145.981 94.8014C144.747 93.9012 139.401 92.5898 135.559 91.4258C132.836 93.9012 130.601 96.1982 129.972 97.9442C132.362 103.826 133.441 110.655 136.141 114.24C133.332 118.617 131.028 123.025 131.571 124.204C135.313 126.048 139.336 127.257 143.475 127.781C150.854 125.539 156.325 123.211 158.731 120.797C158.731 118.547 156.403 115.955 154.416 112.067C156.574 111.237 159.08 104.532 161.982 98.6038Z" fill="#F3C8CF"/>
<path id="Vector_52" opacity="0.2" d="M161.982 98.6038C162.409 97.6804 159.173 94.0952 156.511 90.9214L145.981 94.8014C144.747 93.9012 139.401 92.5898 135.559 91.4258C132.836 93.9012 130.601 96.1982 129.972 97.9442C132.362 103.826 133.441 110.655 136.141 114.24C133.332 118.617 131.028 123.025 131.571 124.204C135.313 126.048 139.336 127.257 143.475 127.781C150.854 125.539 156.325 123.211 158.731 120.797C158.731 118.547 156.403 115.955 154.416 112.067C156.574 111.237 159.08 104.532 161.982 98.6038Z" fill="black"/>
<path id="Vector_53" d="M157.287 93.0241L156.806 92.3723L160.112 79.5605C160.124 79.5486 160.138 79.5391 160.153 79.5326C160.168 79.5261 160.185 79.5227 160.201 79.5227C160.218 79.5227 160.234 79.5261 160.25 79.5326C160.265 79.5391 160.279 79.5486 160.291 79.5605L160.57 79.7313C160.586 79.7343 160.602 79.7412 160.616 79.7513C160.629 79.7614 160.64 79.7745 160.647 79.7895C160.655 79.8046 160.659 79.8212 160.659 79.838C160.659 79.8548 160.655 79.8714 160.648 79.8865L157.287 93.0241Z" fill="#F3C8CF"/>
<path id="Vector_54" d="M136.126 91.5725L133.208 78.6754C133.208 78.5978 133.092 78.59 133.022 78.6754L132.549 78.947C132.479 78.947 132.432 79.0169 132.463 79.0712L135.637 92.0769L136.126 91.5725Z" fill="#F3C8CF"/>
<path id="Vector_55" d="M148.48 61.9844L151.817 63.9089C151.866 63.9379 151.906 63.9806 151.931 64.0317C151.956 64.0828 151.966 64.1401 151.96 64.1968C151.953 64.2535 151.93 64.307 151.894 64.351C151.857 64.3949 151.809 64.4273 151.755 64.4443L147.099 65.9032C146.848 65.9845 146.58 65.9965 146.323 65.9377C146.066 65.879 145.83 65.7517 145.64 65.5695L141.938 62.0775L147.898 61.8447C148.101 61.8387 148.302 61.8869 148.48 61.9844Z" fill="#E3887B"/>
<path id="Vector_56" d="M170.084 87.0718L175.942 83.8902C176.923 83.3569 178.032 83.1045 179.147 83.1608V110.212L176.307 109.017L170.084 87.0718Z" fill="#F3C8CF"/>
<path id="Vector_57" opacity="0.2" d="M170.084 87.0718L175.942 83.8902C176.923 83.3569 178.032 83.1045 179.147 83.1608V110.212L176.307 109.017L170.084 87.0718Z" fill="white"/>
<path id="Vector_58" d="M177.184 106.092L179.147 106.03V181.263C177.126 182.61 174.719 183.256 172.295 183.102C167.639 183.157 164.225 177.616 160.772 172.394L177.184 106.092Z" fill="#F3C8CF"/>
<path id="Vector_59" opacity="0.1" d="M177.184 106.092L179.147 106.03V181.263C177.126 182.61 174.719 183.256 172.295 183.102C167.639 183.157 164.225 177.616 160.772 172.394L177.184 106.092Z" fill="white"/>
<path id="Vector_60" d="M191.998 171.401C191.758 171.21 191.458 171.111 191.152 171.121C191.46 171.101 191.763 171.201 191.998 171.401Z" fill="#F3C8CF"/>
<path id="Vector_61" d="M190.896 171.136C190.971 171.114 191.049 171.098 191.127 171.09C191.048 171.094 190.97 171.11 190.896 171.136Z" fill="#F3C8CF"/>
<path id="Vector_62" d="M185.65 171.058C185.758 171.068 185.864 171.089 185.967 171.12C185.863 171.093 185.757 171.072 185.65 171.058Z" fill="#F3C8CF"/>
<path id="Vector_63" d="M184.447 171.4C184.662 171.23 184.915 171.115 185.184 171.066C184.919 171.126 184.668 171.24 184.447 171.4Z" fill="#F3C8CF"/>
<path id="Vector_64" d="M185.532 171.051C185.425 171.039 185.316 171.039 185.208 171.051C185.316 171.039 185.425 171.039 185.532 171.051Z" fill="#F3C8CF"/>
<path id="Vector_65" d="M163.418 59.4078L173.42 70.6521L171.341 68.3241L172.738 71.5988L173.42 70.6676L179.147 64.8786V72.1885C176.819 75.246 174.724 77.3179 173.141 77.2325L161.067 68.1921C158.304 66.935 158.894 59.0819 163.418 59.4078Z" fill="#E3887B"/>
<path id="Vector_66" d="M171.341 68.3081L173.421 70.6516L172.738 71.5828L171.341 68.3081Z" fill="#E3887B"/>
<path id="Vector_67" opacity="0.2" d="M171.341 68.3081L173.421 70.6516L172.738 71.5828L171.341 68.3081Z" fill="black"/>
<path id="Vector_68" d="M166.312 78.5753L179.147 71.2964V72.2354L168.082 78.4434C168.07 78.4478 168.059 78.4557 168.052 78.4661C168.045 78.4765 168.041 78.4889 168.041 78.5015C168.041 78.5142 168.045 78.5266 168.052 78.537C168.059 78.5474 168.07 78.5553 168.082 78.5597H179.116V79.4366H166.312C165.769 79.4522 165.66 78.8624 166.312 78.5753Z" fill="#263238"/>
<path id="Vector_69" opacity="0.4" d="M166.312 78.5753L179.147 71.2964V72.2354L168.082 78.4434C168.07 78.4478 168.059 78.4557 168.052 78.4661C168.045 78.4765 168.041 78.4889 168.041 78.5015C168.041 78.5142 168.045 78.5266 168.052 78.537C168.059 78.5474 168.07 78.5553 168.082 78.5597H179.116V79.4366H166.312C165.769 79.4522 165.66 78.8624 166.312 78.5753Z" fill="white"/>
<path id="Vector_70" opacity="0.2" d="M114.313 33.3108L130.64 8.5564H142.497L114.313 50.1888V33.3108Z" fill="white"/>
<path id="Vector_71" opacity="0.2" d="M114.313 172.796L182.593 65.5066V86.932L114.344 191.824L114.313 190.179V172.796Z" fill="white"/>
<path id="Vector_72" opacity="0.2" d="M114.313 152.474L182.593 47.0696L182.554 50.872L114.344 157.859L114.313 152.474Z" fill="white"/>
<path id="Vector_73" opacity="0.2" d="M155.037 229.476L182.593 187.696V207.243L166.53 229.476H155.037Z" fill="white"/>
<path id="Vector_74" d="M1.09246 171.4L0.853546 171.593C0.938319 171.485 1.01539 171.4 1.09246 171.4Z" fill="#F3C8CF"/>
</g>
</svg>
